<?xml version="1.0" encoding="UTF-8" standalone="no"?>
<!-- Created with Inkscape (http://www.inkscape.org/) -->

<svg
   xmlns:dc="http://purl.org/dc/elements/1.1/"
   xmlns:cc="http://creativecommons.org/ns#"
   xmlns:rdf="http://www.w3.org/1999/02/22-rdf-syntax-ns#"
   xmlns:svg="http://www.w3.org/2000/svg"
   xmlns="http://www.w3.org/2000/svg"
   xmlns:sodipodi="http://sodipodi.sourceforge.net/DTD/sodipodi-0.dtd"
   xmlns:inkscape="http://www.inkscape.org/namespaces/inkscape"
   width="285"
   height="1000"
   id="svg2"
   version="1.1"
   inkscape:version="0.48.3.1 r9886"
   sodipodi:docname="sporklogo.svg">
  <defs
     id="defs4">
    <inkscape:path-effect
       effect="spiro"
       id="path-effect4166"
       is_visible="true" />
    <inkscape:path-effect
       effect="spiro"
       id="path-effect4147"
       is_visible="true" />
    <inkscape:path-effect
       effect="spiro"
       id="path-effect4143"
       is_visible="true" />
    <inkscape:path-effect
       effect="spiro"
       id="path-effect4139"
       is_visible="true" />
    <inkscape:path-effect
       effect="spiro"
       id="path-effect4135"
       is_visible="true" />
    <inkscape:path-effect
       effect="spiro"
       id="path-effect4129"
       is_visible="true" />
    <inkscape:path-effect
       effect="spiro"
       id="path-effect4125"
       is_visible="true" />
    <inkscape:path-effect
       effect="spiro"
       id="path-effect4121"
       is_visible="true" />
    <inkscape:path-effect
       effect="spiro"
       id="path-effect4117"
       is_visible="true" />
    <inkscape:path-effect
       effect="spiro"
       id="path-effect4113"
       is_visible="true" />
    <inkscape:path-effect
       effect="spiro"
       id="path-effect4109"
       is_visible="true" />
    <inkscape:path-effect
       effect="spiro"
       id="path-effect4105"
       is_visible="true" />
    <inkscape:path-effect
       effect="spiro"
       id="path-effect4101"
       is_visible="true" />
    <inkscape:path-effect
       effect="spiro"
       id="path-effect4097"
       is_visible="true" />
    <inkscape:path-effect
       effect="spiro"
       id="path-effect4093"
       is_visible="true" />
    <inkscape:path-effect
       effect="spiro"
       id="path-effect3321"
       is_visible="true" />
  </defs>
  <sodipodi:namedview
     id="base"
     pagecolor="#f2f2f2"
     bordercolor="#666666"
     borderopacity="1.0"
     inkscape:pageopacity="1"
     inkscape:pageshadow="2"
     inkscape:zoom="0.70710678"
     inkscape:cx="67.004638"
     inkscape:cy="1053.0931"
     inkscape:document-units="px"
     inkscape:current-layer="layer1"
     showgrid="false"
     borderlayer="true"
     showguides="true"
     inkscape:guide-bbox="true"
     inkscape:window-width="1354"
     inkscape:window-height="716"
     inkscape:window-x="0"
     inkscape:window-y="0"
     inkscape:window-maximized="1" />
  <metadata
     id="metadata7">
    <rdf:RDF>
      <cc:Work
         rdf:about="">
        <dc:format>image/svg+xml</dc:format>
        <dc:type
           rdf:resource="http://purl.org/dc/dcmitype/StillImage" />
        <dc:title />
      </cc:Work>
    </rdf:RDF>
  </metadata>
  <g
     inkscape:label="Layer 1"
     inkscape:groupmode="layer"
     id="layer1"
     transform="translate(0,-52.36218)">
    <path
       sodipodi:type="arc"
       style="fill:#b5fcd2;fill-opacity:1;stroke:#9529ae;stroke-width:0;stroke-linecap:round;stroke-miterlimit:4;stroke-opacity:1;stroke-dasharray:none"
       id="path3011"
       sodipodi:cx="168.99852"
       sodipodi:cy="65.911942"
       sodipodi:rx="183.14066"
       sodipodi:ry="139.30003"
       d="m 352.13918,65.911942 a 183.14066,139.30003 0 1 1 -366.281316,0 183.14066,139.30003 0 1 1 366.281316,0 z"
       transform="translate(69.29647,-161.18406)" />
    <g
       style="stroke-width:14.83093834;stroke-miterlimit:4;stroke-dasharray:none"
       id="g3306"
       transform="matrix(0.91947893,0,0,0.91947893,-316.5488,114.43674)">
      <g
         style="stroke-width:14.83093834;stroke-miterlimit:4;stroke-dasharray:none"
         transform="matrix(0.67064632,0,0,0.67064632,113.35806,338.86064)"
         id="g3302" />
      <g
         style="stroke-width:14.83093834;stroke-miterlimit:4;stroke-dasharray:none"
         transform="matrix(0.67064632,0,0,0.67064632,152.32198,353.95017)"
         id="g3298" />
      <g
         style="stroke-width:14.83093834;stroke-miterlimit:4;stroke-dasharray:none"
         transform="translate(-12.5,67.011821)"
         id="g3294" />
    </g>
    <path
       style="fill:#bc5fd3;fill-opacity:0;stroke:#9529ae;stroke-width:9.38904858;stroke-linecap:round;stroke-linejoin:miter;stroke-miterlimit:4;stroke-opacity:1;stroke-dasharray:none"
       d="m 48.254355,80.82631 c 0.158187,-3.834088 -0.970565,-7.710128 -3.162519,-10.859825 -2.191954,-3.149697 -5.434388,-5.554772 -9.0846,-6.738499 -3.650212,-1.183727 -7.687015,-1.139237 -11.310251,0.124651 -3.623236,1.263889 -6.811876,3.739841 -8.93388,6.937083 -2.07303,3.123453 -3.118627,6.92307 -2.900848,10.665527 0.217779,3.742458 1.703619,7.405163 4.18076,10.218913 2.319629,2.634835 5.424172,4.479988 8.678921,5.795149 3.254749,1.31516 6.683438,2.135258 10.084085,3.006258 3.400647,0.871003 6.809667,1.805623 9.97198,3.329703 3.162313,1.52407 6.093064,3.68177 8.05103,6.59543 2.028564,3.01872 2.914469,6.75647 2.615535,10.38116 -0.298934,3.62468 -1.755802,7.12242 -3.992446,9.99037 -2.236643,2.86795 -5.233861,5.11211 -8.551355,6.60273 -3.317494,1.49062 -6.948413,2.23881 -10.583766,2.34804 -4.791071,0.14395 -9.647337,-0.83395 -13.88225,-3.07908 -4.234912,-2.24513 -7.819625,-5.78616 -9.8653436,-10.12092 -1.9942118,-4.22562 -2.475093,-9.14666 -1.3366438,-13.6784"
       id="path4111"
       inkscape:path-effect="#path-effect4113"
       inkscape:original-d="M 48.254355,80.82631 C 40.007617,66.13682 26.586949,64.87784 15.763105,70.28972 c -10.8238446,5.41194 -3.358884,13.66851 1.279912,20.88444 4.638784,7.21594 29.31241,4.03702 36.786016,18.72654 7.473609,14.6895 -2.214581,31.8994 -20.512032,29.3223 -18.297447,-2.5771 -26.8401236,-7.5304 -23.7475936,-13.2 3.0925196,-5.6696 -1.3366438,-13.6784 -1.3366438,-13.6784"
       inkscape:connector-curvature="0"
       sodipodi:nodetypes="csssssc" />
    <path
       style="fill:none;stroke:#9529ae;stroke-width:9.38904858;stroke-linecap:round;stroke-linejoin:miter;stroke-miterlimit:4;stroke-opacity:1;stroke-dasharray:none"
       d="m 71.739429,97.58183 2.667167,75.18727 c 0.437087,-15.18997 0.494234,-30.39087 0.17137,-45.5837 -0.131834,-6.20362 -0.312916,-12.52363 1.40682,-18.48557 0.859867,-2.98098 2.201324,-5.84605 4.137025,-8.27064 1.935701,-2.424588 4.483958,-4.396195 7.40586,-5.4393 3.242028,-1.157388 6.869351,-1.128774 10.141164,-0.05848 3.271815,1.070297 6.181895,3.156569 8.362945,5.819896 2.18105,2.66333 3.64195,5.88843 4.35374,9.25646 0.71179,3.36803 0.68538,6.87514 0.0723,10.26253 -0.67855,3.74913 -2.09019,7.39444 -4.34386,10.46646 -2.25368,3.07202 -5.37298,5.5499 -8.973292,6.79654 -4.821574,1.66952 -10.398339,0.98637 -14.67437,-1.79759 -4.276031,-2.78395 -7.157187,-7.60743 -7.581303,-12.69221"
       id="path4123"
       inkscape:path-effect="#path-effect4125"
       inkscape:original-d="m 71.739429,97.58183 c 0.940876,74.10007 2.667167,75.18727 2.667167,75.18727 0,0 -6.104592,-20.1362 0.17137,-45.5837 6.742021,-27.3373 -1.600517,-38.85409 12.949705,-32.19551 14.550219,6.65861 28.848879,13.44291 22.930149,25.28041 -5.91874,11.8375 2.71275,18.2495 -13.317152,17.263 -16.029909,-0.9865 -22.255673,-14.4898 -22.255673,-14.4898"
       inkscape:connector-curvature="0"
       sodipodi:nodetypes="ccssssc" />
    <path
       style="fill:none;stroke:#9529ae;stroke-width:9.38904858;stroke-linecap:round;stroke-linejoin:miter;stroke-miterlimit:4;stroke-opacity:1;stroke-dasharray:none"
       d="m 196.00154,94.0496 1.3819,45.1872 -0.46063,-27.5231 c 0.2908,-3.16495 1.59944,-6.22845 3.68506,-8.6267 1.69422,-1.94818 3.88382,-3.452326 6.28829,-4.392731 2.40446,-0.940406 5.01892,-1.320793 7.59614,-1.166755 5.15445,0.308075 10.06707,2.765416 13.75355,6.381086 1.61376,1.58276 3.01246,3.38451 4.1457,5.3403"
       id="path4127"
       inkscape:path-effect="#path-effect4129"
       inkscape:original-d="m 196.00154,94.0496 c 0.46063,37.7929 1.3819,45.1872 1.3819,45.1872 l -0.46063,-27.5231 c 0,0 -2.7638,-4.9295 3.68506,-8.6267 6.44887,-3.6971 24.41355,-3.2863 27.63798,0.8216 3.22443,4.108 4.1457,5.3403 4.1457,5.3403"
       inkscape:connector-curvature="0"
       sodipodi:nodetypes="cccssc" />
    <path
       style="fill:none;stroke:#9529ae;stroke-width:9.38904858;stroke-linecap:round;stroke-linejoin:miter;stroke-miterlimit:4;stroke-opacity:1;stroke-dasharray:none"
       d="m 245.95643,139.2368 -1.00925,-81.59665 3.35651,53.90695 c 4.29493,-0.0286 8.57469,-1.29111 12.19747,-3.5982 3.62278,-2.30709 6.57686,-5.65129 8.41923,-9.5311 1.19087,-2.507831 1.92616,-5.358575 1.31821,-8.06741 -0.45556,-2.029834 -1.6645,-3.869271 -3.30252,-5.151715 -1.63802,-1.282445 -3.68856,-2.011017 -5.76579,-2.124555 -2.07723,-0.113538 -4.17425,0.378349 -6.02055,1.336958 -1.8463,0.958609 -3.44259,2.375779 -4.67584,4.051151 -2.46649,3.350743 -3.43003,7.652762 -3.21485,11.807851 0.21519,4.15508 1.53803,8.18666 3.28559,11.96252 5.48689,11.85525 15.39521,21.60112 27.33953,26.8913"
       id="path4145"
       inkscape:path-effect="#path-effect4147"
       inkscape:original-d="m 245.95643,139.2368 c -0.89638,-86.94874 -1.00925,-81.59665 -1.00925,-81.59665 l 3.35651,53.90695 c 0,0 8.62105,2.9 20.6167,-13.1293 8.66001,-11.57208 11.23109,-28.81594 1.31821,-8.06741 -8.3439,17.46451 -31.79507,-0.52726 -19.69396,21.88221 12.1011,22.4094 27.33953,26.8913 27.33953,26.8913"
       inkscape:connector-curvature="0"
       sodipodi:nodetypes="cccsssc" />
    <path
       style="fill:#9529ae;fill-opacity:1;stroke:#000000;stroke-width:22.94878387;stroke-miterlimit:4;stroke-opacity:0;stroke-dasharray:none"
       d="m 142.42111,134.8064 19.39539,0 0,951.2863 -19.39539,0 z"
       id="rect3755"
       inkscape:connector-curvature="0" />
    <path
       inkscape:connector-curvature="0"
       id="path3761"
       d="m 144.53125,64.67468 c -0.50902,0.16596 -1.00084,0.36496 -1.5,0.5625 l -3.34375,18.9375 c -0.34783,1.97263 -2.05821,3.30411 -4,3.25 -0.053,0.002 -0.10276,0.0312 -0.15625,0.0312 -0.14881,0 -0.2931,-0.0468 -0.4375,-0.0625 -1.99425,-0.21658 -3.53125,-1.85105 -3.53125,-3.90625 l 0,-9.9375 c -6.67508,7.61549 -10.90625,18.87978 -10.90625,31.4375 0,22.93736 14.1,41.53117 31.46875,41.53117 17.36874,0 31.4375,-18.59381 31.4375,-41.53117 0,-12.54388 -4.22114,-23.79114 -10.875,-31.40625 l 0,9.90625 c 0,2.0552 -1.537,3.68967 -3.53125,3.90625 -0.1444,0.0157 -0.28869,0.0625 -0.4375,0.0625 -0.0535,0 -0.10326,-0.0292 -0.15625,-0.0312 -1.94179,0.0541 -3.68342,-1.27737 -4.03125,-3.25 l -3.34375,-18.9375 c -0.48434,-0.18903 -0.97474,-0.36921 -1.46875,-0.53125 l -3.4375,19.46875 c -0.35595,2.01869 -2.15961,3.37384 -4.15625,3.25 -2.00173,0.13388 -3.79928,-1.22551 -4.15625,-3.25 l -3.4375,-19.5 z M 147.5,97.23718 c 8.04122,-0.24019 16.22589,5.6973 19.3125,14.5625 3.52755,10.13166 -0.91344,20.26062 -9.9375,22.62502 -9.02406,2.3643 -19.22245,-3.9309 -22.75,-14.06252 -3.52755,-10.13166 0.94469,-20.26065 9.96875,-22.625 1.12801,-0.29554 2.2575,-0.46569 3.40625,-0.5 z"
       style="fill:#9529ae;fill-opacity:1;stroke:#000000;stroke-width:9.14542675;stroke-miterlimit:4;stroke-opacity:0;stroke-dasharray:none" />
    <path
       sodipodi:type="arc"
       style="fill:#9529ae;fill-opacity:1;stroke:#9529ae;stroke-width:0;stroke-linecap:round;stroke-miterlimit:4;stroke-opacity:1;stroke-dasharray:none"
       id="path4172"
       sodipodi:cx="340.25"
       sodipodi:cy="192.75"
       sodipodi:rx="44.25"
       sodipodi:ry="44.25"
       d="M 384.5,192.75 C 384.5,217.1886 364.6886,237 340.25,237 315.8114,237 296,217.1886 296,192.75 c 0,-24.4386 19.8114,-44.25 44.25,-44.25 24.4386,0 44.25,19.8114 44.25,44.25 z"
       transform="matrix(0.10703818,0,0,0.10703818,160.95362,115.9578)" />
    <path
       sodipodi:type="arc"
       style="fill:#9529ae;fill-opacity:1;stroke:#9529ae;stroke-width:0;stroke-linecap:round;stroke-miterlimit:4;stroke-opacity:1;stroke-dasharray:none"
       id="path4172-2"
       sodipodi:cx="340.25"
       sodipodi:cy="192.75"
       sodipodi:rx="44.25"
       sodipodi:ry="44.25"
       d="M 384.5,192.75 C 384.5,217.1886 364.6886,237 340.25,237 315.8114,237 296,217.1886 296,192.75 c 0,-24.4386 19.8114,-44.25 44.25,-44.25 24.4386,0 44.25,19.8114 44.25,44.25 z"
       transform="matrix(0.10636838,0,0,0.10703818,208.74025,36.51377)" />
    <path
       sodipodi:type="arc"
       style="fill:#9529ae;fill-opacity:1;stroke:#9529ae;stroke-width:0;stroke-linecap:round;stroke-miterlimit:4;stroke-opacity:1;stroke-dasharray:none"
       id="path4172-0"
       sodipodi:cx="340.25"
       sodipodi:cy="192.75"
       sodipodi:rx="44.25"
       sodipodi:ry="44.25"
       d="M 384.5,192.75 C 384.5,217.1886 364.6886,237 340.25,237 315.8114,237 296,217.1886 296,192.75 c 0,-24.4386 19.8114,-44.25 44.25,-44.25 24.4386,0 44.25,19.8114 44.25,44.25 z"
       transform="matrix(0.10703818,0,0,0.10703818,38.018941,152.3659)" />
  </g>
</svg>
